<?xml version="1.0" encoding="UTF-8" standalone="no"?>
<!-- Created with Inkscape (http://www.inkscape.org/) -->
<svg xmlns:rdf="http://www.w3.org/1999/02/22-rdf-syntax-ns#" xmlns="http://www.w3.org/2000/svg" xmlns:cc="http://web.resource.org/cc/" xmlns:dc="http://purl.org/dc/elements/1.1/" xmlns:svg="http://www.w3.org/2000/svg" xmlns:inkscape="http://www.inkscape.org/namespaces/inkscape" xmlns:sodipodi="http://sodipodi.sourceforge.net/DTD/sodipodi-0.dtd" xmlns:ns1="http://sozi.baierouge.fr" xmlns:xlink="http://www.w3.org/1999/xlink" id="svg2" viewBox="0 0 720 720" version="1.1" inkscape:version="0.91 r13725">
  <g id="layer1" transform="translate(0 -332.36)">
    <path id="path2848" style="fill:#00ffff" d="m589.09 345.19a156.62 156.62 0 0 1 -78.312 135.64l-78.31-135.64z" transform="matrix(2.107 0 0 2.107 -551.19 -34.951)"/>
    <path id="path2850" style="fill:#0000ff" d="m589.09 345.19a156.62 156.62 0 0 1 -78.312 135.64l-78.31-135.64z" transform="matrix(1.0535 1.8247 -1.8247 1.0535 534.27 -460.41)"/>
    <path id="path2852" style="fill:#ff00ff" d="m589.09 345.19a156.62 156.62 0 0 1 -78.312 135.64l-78.31-135.64z" transform="matrix(-1.0535 1.8247 -1.8247 -1.0535 1445.5 266.9)"/>
    <path id="path2854" style="fill:#ff0000" d="m589.09 345.19a156.62 156.62 0 0 1 -78.312 135.64l-78.31-135.64z" transform="matrix(-2.107 8.1095e-18 -8.1095e-18 -2.107 1271.2 1419.7)"/>
    <path id="path2856" style="fill:#ffff00" d="m589.09 345.19a156.62 156.62 0 0 1 -78.312 135.64l-78.31-135.64z" transform="matrix(-1.0535 -1.8247 1.8247 -1.0535 185.73 1845.1)"/>
    <path id="path2858" style="fill:#00ff00" d="m589.09 345.19a156.62 156.62 0 0 1 -78.312 135.64l-78.31-135.64z" transform="matrix(1.0535 -1.8247 1.8247 1.0535 -725.47 1117.8)"/>
  </g>
  <metadata>
    <rdf:RDF>
      <cc:Work>
        <dc:format>image/svg+xml</dc:format>
        <dc:type rdf:resource="http://purl.org/dc/dcmitype/StillImage"/>
        <cc:license rdf:resource="http://creativecommons.org/licenses/publicdomain/"/>
        <dc:publisher>
          <cc:Agent rdf:about="http://openclipart.org/">
            <dc:title>Openclipart</dc:title>
          </cc:Agent>
        </dc:publisher>
        <dc:title>6 color beach ball</dc:title>
        <dc:date>2011-04-18T01:46:25</dc:date>
        <dc:description>6 color beach ball&#13;\n&#13;\nI learned a lot from this.&#13;\nhttp://tavmjong.free.fr/INKSCAPE/MANUAL/html/Shapes-Arcs.html</dc:description>
        <dc:source>https://openclipart.org/detail/132877/6-color-beach-ball-by-10binary</dc:source>
        <dc:creator>
          <cc:Agent>
            <dc:title>10binary</dc:title>
          </cc:Agent>
        </dc:creator>
        <dc:subject>
          <rdf:Bag>
            <rdf:li>6</rdf:li>
            <rdf:li>ball</rdf:li>
            <rdf:li>beach</rdf:li>
            <rdf:li>color</rdf:li>
          </rdf:Bag>
        </dc:subject>
      </cc:Work>
      <cc:License rdf:about="http://creativecommons.org/licenses/publicdomain/">
        <cc:permits rdf:resource="http://creativecommons.org/ns#Reproduction"/>
        <cc:permits rdf:resource="http://creativecommons.org/ns#Distribution"/>
        <cc:permits rdf:resource="http://creativecommons.org/ns#DerivativeWorks"/>
      </cc:License>
    </rdf:RDF>
  </metadata>
</svg>
